<svg width="20" height="21" viewBox="0 0 20 21" fill="none" xmlns="http://www.w3.org/2000/svg">
<path d="M13.0382 11.0966C13.8552 10.4538 14.4515 9.57234 14.7442 8.57486C15.0369 7.57737 15.0115 6.51346 14.6714 5.53113C14.3312 4.5488 13.6934 3.6969 12.8466 3.09395C11.9998 2.491 10.9861 2.16699 9.94653 2.16699C8.90699 2.16699 7.89329 2.491 7.04647 3.09395C6.19965 3.6969 5.56182 4.5488 5.22171 5.53113C4.8816 6.51346 4.85612 7.57737 5.14883 8.57486C5.44154 9.57234 6.03787 10.4538 6.85486 11.0966C5.45493 11.6574 4.23344 12.5877 3.32061 13.7882C2.40778 14.9886 1.83783 16.4143 1.67153 17.9132C1.65949 18.0227 1.66913 18.1334 1.69988 18.2391C1.73064 18.3448 1.78192 18.4434 1.85079 18.5293C1.98988 18.7028 2.19218 18.8139 2.4132 18.8382C2.63421 18.8626 2.85583 18.7981 3.0293 18.659C3.20277 18.5199 3.31389 18.3176 3.3382 18.0966C3.52118 16.4676 4.29794 14.9631 5.52005 13.8706C6.74216 12.778 8.32395 12.1741 9.9632 12.1741C11.6024 12.1741 13.1842 12.778 14.4063 13.8706C15.6285 14.9631 16.4052 16.4676 16.5882 18.0966C16.6109 18.3013 16.7086 18.4905 16.8625 18.6274C17.0163 18.7644 17.2155 18.8395 17.4215 18.8382H17.5132C17.7316 18.8131 17.9313 18.7027 18.0687 18.5309C18.206 18.3592 18.27 18.1402 18.2465 17.9216C18.0794 16.4184 17.5064 14.9891 16.5889 13.7867C15.6714 12.5844 14.444 11.6545 13.0382 11.0966ZM9.94653 10.5049C9.28726 10.5049 8.64279 10.3094 8.09463 9.94314C7.54647 9.57687 7.11922 9.05627 6.86693 8.44718C6.61464 7.8381 6.54863 7.16787 6.67725 6.52127C6.80586 5.87467 7.12333 5.28072 7.58951 4.81455C8.05568 4.34837 8.64963 4.03091 9.29623 3.90229C9.94283 3.77367 10.6131 3.83968 11.2221 4.09197C11.8312 4.34427 12.3518 4.77151 12.7181 5.31967C13.0844 5.86784 13.2799 6.5123 13.2799 7.17157C13.2799 8.05563 12.9287 8.90347 12.3036 9.5286C11.6784 10.1537 10.8306 10.5049 9.94653 10.5049Z" fill="#A162F7"/>
</svg>
