<svg width="18" height="17" viewBox="0 0 18 17" fill="none" xmlns="http://www.w3.org/2000/svg">
<path d="M3.58317 13.0837H2.33317V3.91699H8.83317L8.1665 4.58366C7.99984 4.75033 7.9165 4.91699 7.9165 5.16699C7.9165 5.66699 8.24984 6.00033 8.74984 6.00033C8.99984 6.00033 9.1665 5.91699 9.33317 5.75033L11.4165 3.66699C11.7498 3.33366 11.7498 2.83366 11.4165 2.50033L9.33317 0.416992C8.99984 0.0836589 8.49984 0.0836589 8.1665 0.416992C7.83317 0.750326 7.83317 1.25033 8.1665 1.58366L8.83317 2.25033H1.49984C0.999837 2.25033 0.666504 2.58366 0.666504 3.08366V13.917C0.666504 14.417 0.999837 14.7503 1.49984 14.7503H3.58317C4.08317 14.7503 4.4165 14.417 4.4165 13.917C4.4165 13.417 4.08317 13.0837 3.58317 13.0837ZM16.4998 2.25033H14.4165C13.9165 2.25033 13.5832 2.58366 13.5832 3.08366C13.5832 3.58366 13.9165 3.91699 14.4165 3.91699H15.6665V13.0837H8.6665L9.33317 12.417C9.6665 12.0837 9.6665 11.5837 9.33317 11.2503C8.99984 10.917 8.49984 10.917 8.1665 11.2503L6.08317 13.3337C5.74984 13.667 5.74984 14.167 6.08317 14.5003L8.1665 16.5837C8.33317 16.7503 8.49984 16.8337 8.74984 16.8337C8.99984 16.8337 9.1665 16.7503 9.33317 16.5837C9.6665 16.2503 9.6665 15.7503 9.33317 15.417L8.6665 14.7503H16.4998C16.9998 14.7503 17.3332 14.417 17.3332 13.917V3.08366C17.3332 2.58366 16.9998 2.25033 16.4998 2.25033Z" fill="#A162F7"/>
</svg>
